<?xml version="1.0" encoding="utf-8"?>
<!-- Generator: Adobe Illustrator 24.1.1, SVG Export Plug-In . SVG Version: 6.00 Build 0)  -->
<svg version="1.1" id="Layer_1" xmlns="http://www.w3.org/2000/svg" xmlns:xlink="http://www.w3.org/1999/xlink" x="0px" y="0px"
	 viewBox="0 0 400 400" style="enable-background:new 0 0 400 400;" xml:space="preserve">
<style type="text/css">
	.st0{fill:#FFFFFF;}
</style>
<g>
	<polygon class="st0" points="289.06,166.04 276.58,166.04 227.93,222.28 240.42,222.28 	"/>
	<polygon class="st0" points="307.88,197.98 335.51,166.04 323.03,166.04 295.39,197.98 	"/>
	<polygon class="st0" points="337.54,251.81 312,222.28 360.65,166.04 348.16,166.04 299.51,222.28 325.06,251.81 	"/>
	<path class="st0" d="M380.04,175.82c2.83,0,4,1.15,4.63,2.02c1.52,2.1,2.41,6.62,0.33,13.03c-4.04,12.43-15.39,21.09-23.05,21.09
		c-2.83,0-4-1.15-4.63-2.02c-1.52-2.1-2.41-6.62-0.33-13.03C361.02,184.48,372.38,175.82,380.04,175.82 M380.04,166.04
		c-12.87,0-27.36,12.47-32.36,27.85c-5,15.38,1.39,27.85,14.26,27.85c12.87,0,27.36-12.47,32.36-27.85
		C399.3,178.5,392.91,166.04,380.04,166.04L380.04,166.04z"/>
	<path class="st0" d="M164.35,226.89c0,0-40.79,44.26-59.56,63.47c-15.53,15.9-54.28,44.4-89.91,44.4s136.19,0,114.32,0
		s-30.08-7.7-16.54-27.57c14.98-21.98,64.09-79.96,64.38-80.3H164.35z"/>
	<path class="st0" d="M348.61,312.82l-5.92-1.35c-1.96-0.48-3.93-0.92-5.88-1.43c-1.95-0.53-3.9-0.99-5.82-1.57
		c-1.93-0.56-3.85-1.1-5.76-1.71c-1.91-0.57-3.8-1.21-5.68-1.84c-1.88-0.63-3.74-1.32-5.59-2c-1.84-0.73-3.68-1.42-5.48-2.21
		c-0.9-0.38-1.83-0.7-2.74-1.03c-0.92-0.31-1.86-0.59-2.78-0.89c-1.83-0.65-3.65-1.36-5.42-2.13c-3.57-1.51-7.07-3.17-10.43-5.06
		c-6.74-3.75-12.98-8.27-18.65-13.51c-2.85-2.61-5.55-5.4-8.18-8.31c-1.31-1.46-2.61-2.94-3.9-4.45l-3.89-4.62
		c-5.25-6.21-10.53-12.32-15.82-18.45l-13.34-15.39h-12.98c1.02,1.16,2.04,2.32,3.05,3.48l15.87,18.3
		c5.27,6.11,10.56,12.23,15.74,18.36l3.92,4.65c1.33,1.57,2.69,3.13,4.08,4.67c2.78,3.09,5.71,6.1,8.82,8.96
		c6.2,5.72,13.13,10.75,20.52,14.86c3.69,2.07,7.5,3.88,11.37,5.52c1.92,0.85,3.9,1.55,5.84,2.35c0.98,0.37,1.95,0.77,2.93,1.13
		c0.98,0.37,2,0.62,3.02,0.86c8.17,1.88,16.39,3,24.58,3.61c2.04,0.18,4.1,0.24,6.14,0.37c2.04,0.1,4.09,0.14,6.13,0.21l6.12,0.01
		c2.04-0.03,4.07-0.09,6.11-0.15C352.58,313.64,350.59,313.23,348.61,312.82z"/>
	<path class="st0" d="M255.6,166.04l-42.54,49.18c-2.79-3.16-5.57-6.34-8.38-9.49l-5.2-5.8l0.02-0.02l-6.35-7.09l-0.02,0.02
		l-20.82-23.21c-5.38-6.01-10.72-12.05-16-18.1l-15.89-18.15l-0.5-0.57l-0.25-0.28l-0.21-0.26c-0.38-0.47-0.73-0.88-1.09-1.3
		c-0.72-0.83-1.45-1.62-2.18-2.4c-1.48-1.55-2.99-3.05-4.54-4.48c-3.1-2.88-6.37-5.55-9.74-8.06c-3.38-2.51-6.88-4.84-10.48-6.99
		l-2.72-1.59c-0.92-0.51-1.84-1.01-2.74-1.54c-1.83-1.02-3.64-2.11-5.62-2.84c-15.76-5.97-32.46-8.54-48.72-7.92l2.97,0.69
		c0.99,0.23,1.98,0.41,2.96,0.69c1.96,0.53,3.92,0.97,5.84,1.58l2.89,0.83c0.96,0.3,1.91,0.62,2.86,0.92
		c1.91,0.59,3.78,1.31,5.65,1.99c0.94,0.33,1.85,0.74,2.77,1.1c0.92,0.37,1.85,0.71,2.75,1.12l2.72,1.19
		c0.91,0.39,1.79,0.84,2.68,1.26c1.79,0.81,3.53,1.75,5.27,2.63c1.72,0.95,3.43,1.88,5.11,2.87c1.7,0.95,3.46,1.75,5.22,2.59
		c0.87,0.44,1.72,0.91,2.57,1.37l2.51,1.47c3.33,2,6.56,4.15,9.67,6.45c3.11,2.31,6.11,4.76,8.93,7.38c1.42,1.3,2.78,2.65,4.09,4.03
		c0.65,0.69,1.29,1.39,1.89,2.08c0.3,0.35,0.6,0.7,0.86,1.02l0.27,0.33l0.25,0.29l0.5,0.57l16.05,18.33
		c5.34,6.12,10.71,12.2,16.11,18.23l21.66,24.14l-19.01,21.98h12.49l12.88-14.89l4.35,4.85c2.98,3.34,5.95,6.69,8.9,10.04h0.66
		h12.35h0.14l48.65-56.24H255.6z"/>
	<path class="st0" d="M262.96,105.22c-17.79,26.36-46.65,60.82-46.65,60.82l-21.42,24.76l6.4,7.04l27.51-31.8
		c0,0,64.23-67.48,85.38-87.54s44.2-25.56,64.43-25.56c-13.38,0-92.22,0-105.55,0C293.19,52.94,283.72,74.47,262.96,105.22z"/>
	<polygon class="st0" points="282.12,197.93 309.71,166.04 297.22,166.04 248.57,222.28 261.06,222.28 276.03,204.97 284.51,204.97 
		296.03,218.28 302.28,211.07 291,198.03 	"/>
</g>
</svg>
